<svg viewBox="0 0 96 96" xmlns="http://www.w3.org/2000/svg" xmlns:xlink="http://www.w3.org/1999/xlink" id="Icons_QuestionMark1" overflow="hidden"><style>
.MsftOfcResponsive_Stroke_11ffff {
 stroke:#11FFFF; 
}
</style>
<path d="M73.335 29.612C71.698 15.6242 59.0316 5.6119 45.0438 7.24889 32.2279 8.74875 22.552 19.5857 22.508 32.489L34.508 32.489C34.5077 25.0359 40.5494 18.9937 48.0024 18.9934 55.4555 18.9931 61.4977 25.0348 61.498 32.4879 61.4982 37.1349 59.1075 41.4551 55.17 43.923 47.0441 48.8948 42.0635 57.712 42 67.238L54 67.238C54.0765 61.841 56.9344 56.866 61.558 54.081 69.8821 48.8856 74.4673 39.3588 73.335 29.612Z" class="MsftOfcResponsive_Stroke_11ffff" stroke="#11FFFF" stroke-width="1.33333" fill="none"/><path d="M53.379 76.474 53.379 76.474C50.5194 73.6085 45.8784 73.6036 43.0128 76.4632 43.0092 76.4668 43.0056 76.4704 43.002 76.474 42.3314 77.1471 41.7975 77.9438 41.43 78.82 41.0474 79.7251 40.8525 80.6984 40.857 81.681 40.8515 82.6597 41.0472 83.6291 41.432 84.529 42.1798 86.2881 43.5849 87.6857 45.348 88.424 46.2529 88.8065 47.2256 89.0024 48.208 89 49.1866 89.0048 50.1559 88.8092 51.056 88.425 52.8066 87.6774 54.2009 86.2828 54.948 84.532 55.3326 83.632 55.5286 82.6627 55.524 81.684 55.5277 80.7014 55.3324 79.7282 54.95 78.823 54.5828 77.946 54.0493 77.1483 53.379 76.474Z" class="MsftOfcResponsive_Stroke_11ffff" stroke="#11FFFF" stroke-width="1.33333" fill="none"/></svg>